<?xml version="1.0" encoding="UTF-8" standalone="no"?><!DOCTYPE svg PUBLIC "-//W3C//DTD SVG 1.1//EN" "http://www.w3.org/Graphics/SVG/1.1/DTD/svg11.dtd"><svg width="100%" height="100%" viewBox="0 0 1920 1080" version="1.1" xmlns="http://www.w3.org/2000/svg" xmlns:xlink="http://www.w3.org/1999/xlink" xml:space="preserve" xmlns:serif="http://www.serif.com/" style="fill-rule:evenodd;clip-rule:evenodd;"><path d="M29,980l-79,115l-5,-201l84,86Z" style="fill:#106e3a;fill-rule:nonzero;stroke:#106e3a;stroke-width:1.51px;"/><path d="M34,392l-94,101l-2,-199l96,98Z" style="fill:#57985c;fill-rule:nonzero;stroke:#57985c;stroke-width:1.51px;"/><path d="M96,721l-151,173l-54,-186l205,13Z" style="fill:#228146;fill-rule:nonzero;stroke:#228146;stroke-width:1.51px;"/><path d="M-24,65l151,133l-189,96l38,-229Z" style="fill:#70a467;fill-rule:nonzero;stroke:#70a467;stroke-width:1.51px;"/><path d="M-23,642l119,79l-205,-13l86,-66Z" style="fill:#2e874b;fill-rule:nonzero;stroke:#2e874b;stroke-width:1.51px;"/><path d="M96,721l63,83l-214,90l151,-173Z" style="fill:#208346;fill-rule:nonzero;stroke:#208346;stroke-width:1.51px;"/><path d="M178,566l-201,76l-37,-149l238,73Z" style="fill:#409254;fill-rule:nonzero;stroke:#409254;stroke-width:1.51px;"/><path d="M127,198l-93,194l-96,-98l189,-96Z" style="fill:#64a162;fill-rule:nonzero;stroke:#64a162;stroke-width:1.51px;"/><path d="M34,392l144,174l-238,-73l94,-101Z" style="fill:#4d9859;fill-rule:nonzero;stroke:#4d9859;stroke-width:1.51px;"/><path d="M159,804l-130,176l-84,-86l214,-90Z" style="fill:#197a40;fill-rule:nonzero;stroke:#197a40;stroke-width:1.51px;"/><path d="M29,980l56,207l-135,-92l79,-115Z" style="fill:#076a38;fill-rule:nonzero;stroke:#076a38;stroke-width:1.51px;"/><path d="M160,117l-33,81l-151,-133l184,52Z" style="fill:#79ab6b;fill-rule:nonzero;stroke:#79ab6b;stroke-width:1.51px;"/><path d="M106,-61l-130,126l-8,-109l138,-17Z" style="fill:#80ab70;fill-rule:nonzero;stroke:#80ab70;stroke-width:1.51px;"/><path d="M178,566l-82,155l-119,-79l201,-76Z" style="fill:#379151;fill-rule:nonzero;stroke:#379151;stroke-width:1.51px;"/><path d="M106,-61l54,178l-184,-52l130,-126Z" style="fill:#7fad6f;fill-rule:nonzero;stroke:#7fad6f;stroke-width:1.51px;"/><path d="M192,954l80,142l-187,91l107,-233Z" style="fill:#10733c;fill-rule:nonzero;stroke:#10733c;stroke-width:1.51px;"/><path d="M127,198l46,186l-139,8l93,-194Z" style="fill:#64a462;fill-rule:nonzero;stroke:#64a462;stroke-width:1.51px;"/><path d="M173,384l5,182l-144,-174l139,-8Z" style="fill:#549e5d;fill-rule:nonzero;stroke:#549e5d;stroke-width:1.51px;"/><path d="M159,804l33,150l-163,26l130,-176Z" style="fill:#1b7c40;fill-rule:nonzero;stroke:#1b7c40;stroke-width:1.51px;"/><path d="M192,954l-107,233l-56,-207l163,-26Z" style="fill:#0f713b;fill-rule:nonzero;stroke:#0f713b;stroke-width:1.51px;"/><path d="M244,439l-66,127l-5,-182l71,55Z" style="fill:#54a15d;fill-rule:nonzero;stroke:#54a15d;stroke-width:1.51px;"/><path d="M256,57l-96,60l-54,-178l150,118Z" style="fill:#82b272;fill-rule:nonzero;stroke:#82b272;stroke-width:1.51px;"/><path d="M178,566l84,127l-166,28l82,-155Z" style="fill:#389352;fill-rule:nonzero;stroke:#389352;stroke-width:1.51px;"/><path d="M292,267l-119,117l-46,-186l165,69Z" style="fill:#6caa66;fill-rule:nonzero;stroke:#6caa66;stroke-width:1.51px;"/><path d="M262,693l-103,111l-63,-83l166,-28Z" style="fill:#2b8e4c;fill-rule:nonzero;stroke:#2b8e4c;stroke-width:1.51px;"/><path d="M300,-29l-44,86l-150,-118l194,32Z" style="fill:#88b675;fill-rule:nonzero;stroke:#88b675;stroke-width:1.51px;"/><path d="M160,117l132,150l-165,-69l33,-81Z" style="fill:#76ae6a;fill-rule:nonzero;stroke:#76ae6a;stroke-width:1.51px;"/><path d="M260,580l2,113l-84,-127l82,14Z" style="fill:#419956;fill-rule:nonzero;stroke:#419956;stroke-width:1.51px;"/><path d="M310,889l-118,65l-33,-150l151,85Z" style="fill:#228344;fill-rule:nonzero;stroke:#228344;stroke-width:1.51px;"/><path d="M244,439l16,141l-82,-14l66,-127Z" style="fill:#4d9e5b;fill-rule:nonzero;stroke:#4d9e5b;stroke-width:1.51px;"/><path d="M256,57l36,210l-132,-150l96,-60Z" style="fill:#7cb26e;fill-rule:nonzero;stroke:#7cb26e;stroke-width:1.51px;"/><path d="M262,693l48,196l-151,-85l103,-111Z" style="fill:#298d4a;fill-rule:nonzero;stroke:#298d4a;stroke-width:1.51px;"/><path d="M292,267l-48,172l-71,-55l119,-117Z" style="fill:#64a863;fill-rule:nonzero;stroke:#64a863;stroke-width:1.51px;"/><path d="M338,934l-66,162l-80,-142l146,-20Z" style="fill:#1c7c40;fill-rule:nonzero;stroke:#1c7c40;stroke-width:1.51px;"/><path d="M310,889l28,45l-146,20l118,-65Z" style="fill:#218243;fill-rule:nonzero;stroke:#218243;stroke-width:1.51px;"/><path d="M420,110l7,91l-135,66l128,-157Z" style="fill:#7db76f;fill-rule:nonzero;stroke:#7db76f;stroke-width:1.51px;"/><path d="M338,934l60,157l-126,5l66,-162Z" style="fill:#1c7c40;fill-rule:nonzero;stroke:#1c7c40;stroke-width:1.51px;"/><path d="M437,796l-127,93l-48,-196l175,103Z" style="fill:#2d914c;fill-rule:nonzero;stroke:#2d914c;stroke-width:1.51px;"/><path d="M420,110l-128,157l-36,-210l164,53Z" style="fill:#80b66f;fill-rule:nonzero;stroke:#80b66f;stroke-width:1.51px;"/><path d="M292,267l104,132l-152,40l48,-172Z" style="fill:#66ab64;fill-rule:nonzero;stroke:#66ab64;stroke-width:1.51px;"/><path d="M422,514l-162,66l-16,-141l178,75Z" style="fill:#52a35e;fill-rule:nonzero;stroke:#52a35e;stroke-width:1.51px;"/><path d="M396,399l26,115l-178,-75l152,-40Z" style="fill:#5da962;fill-rule:nonzero;stroke:#5da962;stroke-width:1.51px;"/><path d="M464,657l-202,36l-2,-113l204,77Z" style="fill:#419c56;fill-rule:nonzero;stroke:#419c56;stroke-width:1.51px;"/><path d="M300,-29l120,139l-164,-53l44,-86Z" style="fill:#88ba74;fill-rule:nonzero;stroke:#88ba74;stroke-width:1.51px;"/><path d="M422,514l42,143l-204,-77l162,-66Z" style="fill:#4ba35b;fill-rule:nonzero;stroke:#4ba35b;stroke-width:1.51px;"/><path d="M464,657l-27,139l-175,-103l202,-36Z" style="fill:#389b53;fill-rule:nonzero;stroke:#389b53;stroke-width:1.51px;"/><path d="M427,201l-31,198l-104,-132l135,-66Z" style="fill:#72b26a;fill-rule:nonzero;stroke:#72b26a;stroke-width:1.51px;"/><path d="M409,-105l11,215l-120,-139l109,-76Z" style="fill:#8ebe78;fill-rule:nonzero;stroke:#8ebe78;stroke-width:1.51px;"/><path d="M474,994l-76,97l-60,-157l136,60Z" style="fill:#228343;fill-rule:nonzero;stroke:#228343;stroke-width:1.51px;"/><path d="M437,796l-99,138l-28,-45l127,-93Z" style="fill:#298b48;fill-rule:nonzero;stroke:#298b48;stroke-width:1.51px;"/><path d="M437,796l37,198l-136,-60l99,-138Z" style="fill:#298b47;fill-rule:nonzero;stroke:#298b47;stroke-width:1.51px;"/><path d="M570,819l-96,175l-37,-198l133,23Z" style="fill:#2f944d;fill-rule:nonzero;stroke:#2f944d;stroke-width:1.51px;"/><path d="M640,241l-93,186l-120,-226l213,40Z" style="fill:#79bd71;fill-rule:nonzero;stroke:#79bd71;stroke-width:1.51px;"/><path d="M630,-79l-61,219l-149,-30l210,-189Z" style="fill:#91c77d;fill-rule:nonzero;stroke:#91c77d;stroke-width:1.51px;"/><path d="M630,-79l-210,189l-11,-215l221,26Z" style="fill:#94c67e;fill-rule:nonzero;stroke:#94c67e;stroke-width:1.51px;"/><path d="M547,427l-125,87l-26,-115l151,28Z" style="fill:#62b066;fill-rule:nonzero;stroke:#62b066;stroke-width:1.51px;"/><path d="M427,201l120,226l-151,-28l31,-198Z" style="fill:#70b66b;fill-rule:nonzero;stroke:#70b66b;stroke-width:1.51px;"/><path d="M474,994l101,6l-177,91l76,-97Z" style="fill:#248646;fill-rule:nonzero;stroke:#248646;stroke-width:1.51px;"/><path d="M575,1000l54,174l-231,-83l177,-91Z" style="fill:#238546;fill-rule:nonzero;stroke:#238546;stroke-width:1.51px;"/><path d="M464,657l106,162l-133,-23l27,-139Z" style="fill:#389e55;fill-rule:nonzero;stroke:#389e55;stroke-width:1.51px;"/><path d="M569,140l71,101l-213,-40l142,-61Z" style="fill:#85c276;fill-rule:nonzero;stroke:#85c276;stroke-width:1.51px;"/><path d="M623,493l-159,164l-42,-143l201,-21Z" style="fill:#54ad63;fill-rule:nonzero;stroke:#54ad63;stroke-width:1.51px;"/><path d="M569,140l-142,61l-7,-91l149,30Z" style="fill:#86c075;fill-rule:nonzero;stroke:#86c075;stroke-width:1.51px;"/><path d="M547,427l76,66l-201,21l125,-87Z" style="fill:#60b368;fill-rule:nonzero;stroke:#60b368;stroke-width:1.51px;"/><path d="M570,819l5,181l-101,-6l96,-175Z" style="fill:#2d904b;fill-rule:nonzero;stroke:#2d904b;stroke-width:1.51px;"/><path d="M635,724l-65,95l-106,-162l171,67Z" style="fill:#3ea559;fill-rule:nonzero;stroke:#3ea559;stroke-width:1.51px;"/><path d="M623,493l12,231l-171,-67l159,-164Z" style="fill:#4ead61;fill-rule:nonzero;stroke:#4ead61;stroke-width:1.51px;"/><path d="M762,544l-127,180l-12,-231l139,51Z" style="fill:#58b668;fill-rule:nonzero;stroke:#58b668;stroke-width:1.51px;"/><path d="M725,1094l-96,80l-54,-174l150,94Z" style="fill:#298c4b;fill-rule:nonzero;stroke:#298c4b;stroke-width:1.51px;"/><path d="M730,881l-155,119l-5,-181l160,62Z" style="fill:#349a51;fill-rule:nonzero;stroke:#349a51;stroke-width:1.51px;"/><path d="M630,-79l165,151l-226,68l61,-219Z" style="fill:#98d084;fill-rule:nonzero;stroke:#98d084;stroke-width:1.51px;"/><path d="M640,241l52,19l-145,167l93,-186Z" style="fill:#7bc274;fill-rule:nonzero;stroke:#7bc274;stroke-width:1.51px;"/><path d="M760,361l-137,132l-76,-66l213,-66Z" style="fill:#6dbd6f;fill-rule:nonzero;stroke:#6dbd6f;stroke-width:1.51px;"/><path d="M692,260l68,101l-213,66l145,-167Z" style="fill:#79c374;fill-rule:nonzero;stroke:#79c374;stroke-width:1.51px;"/><path d="M741,1003l-16,91l-150,-94l166,3Z" style="fill:#2f924e;fill-rule:nonzero;stroke:#2f924e;stroke-width:1.51px;"/><path d="M730,881l11,122l-166,-3l155,-119Z" style="fill:#349850;fill-rule:nonzero;stroke:#349850;stroke-width:1.51px;"/><path d="M635,724l66,20l-131,75l65,-95Z" style="fill:#3fa75a;fill-rule:nonzero;stroke:#3fa75a;stroke-width:1.51px;"/><path d="M795,72l-155,169l-71,-101l226,-68Z" style="fill:#90cd7e;fill-rule:nonzero;stroke:#90cd7e;stroke-width:1.51px;"/><path d="M701,744l29,137l-160,-62l131,-75Z" style="fill:#3ca458;fill-rule:nonzero;stroke:#3ca458;stroke-width:1.51px;"/><path d="M795,72l-103,188l-52,-19l155,-169Z" style="fill:#8fcd7e;fill-rule:nonzero;stroke:#8fcd7e;stroke-width:1.51px;"/><path d="M762,544l-61,200l-66,-20l127,-180Z" style="fill:#50b163;fill-rule:nonzero;stroke:#50b163;stroke-width:1.51px;"/><path d="M788,-58l7,130l-165,-151l158,21Z" style="fill:#a3d68b;fill-rule:nonzero;stroke:#a3d68b;stroke-width:1.51px;"/><path d="M760,361l2,183l-139,-51l137,-132Z" style="fill:#6dbf71;fill-rule:nonzero;stroke:#6dbf71;stroke-width:1.51px;"/><path d="M795,72l41,139l-144,49l103,-188Z" style="fill:#95d082;fill-rule:nonzero;stroke:#95d082;stroke-width:1.51px;"/><path d="M762,544l124,51l-185,149l61,-200Z" style="fill:#5db86a;fill-rule:nonzero;stroke:#5db86a;stroke-width:1.51px;"/><path d="M886,595l15,124l-200,25l185,-149Z" style="fill:#5ab668;fill-rule:nonzero;stroke:#5ab668;stroke-width:1.51px;"/><path d="M901,719l-171,162l-29,-137l200,-25Z" style="fill:#4aac5f;fill-rule:nonzero;stroke:#4aac5f;stroke-width:1.51px;"/><path d="M836,211l-76,150l-68,-101l144,-49Z" style="fill:#89cb7d;fill-rule:nonzero;stroke:#89cb7d;stroke-width:1.51px;"/><path d="M901,719l-9,170l-162,-8l171,-162Z" style="fill:#4dab5f;fill-rule:nonzero;stroke:#4dab5f;stroke-width:1.51px;"/><path d="M844,39l-49,33l-7,-130l56,97Z" style="fill:#a6d78c;fill-rule:nonzero;stroke:#a6d78c;stroke-width:1.51px;"/><path d="M920,409l-158,135l-2,-183l160,48Z" style="fill:#79c577;fill-rule:nonzero;stroke:#79c577;stroke-width:1.51px;"/><path d="M853,1004l-112,-1l-11,-122l123,123Z" style="fill:#3e9c54;fill-rule:nonzero;stroke:#3e9c54;stroke-width:1.51px;"/><path d="M892,889l-39,115l-123,-123l162,8Z" style="fill:#45a159;fill-rule:nonzero;stroke:#45a159;stroke-width:1.51px;"/><path d="M741,1003l112,1l-128,90l16,-91Z" style="fill:#399652;fill-rule:nonzero;stroke:#399652;stroke-width:1.51px;"/><path d="M853,1004l47,186l-175,-96l128,-90Z" style="fill:#3b9453;fill-rule:nonzero;stroke:#3b9453;stroke-width:1.51px;"/><path d="M920,409l-34,186l-124,-51l158,-135Z" style="fill:#72c275;fill-rule:nonzero;stroke:#72c275;stroke-width:1.51px;"/><path d="M836,211l84,198l-160,-48l76,-150Z" style="fill:#89cd7e;fill-rule:nonzero;stroke:#89cd7e;stroke-width:1.51px;"/><path d="M844,39l-8,172l-41,-139l49,-33Z" style="fill:#a0d588;fill-rule:nonzero;stroke:#a0d588;stroke-width:1.51px;"/><path d="M915,-53l-71,92l-56,-97l127,5Z" style="fill:#acdb90;fill-rule:nonzero;stroke:#acdb90;stroke-width:1.51px;"/><path d="M901,719l84,113l-93,57l9,-170Z" style="fill:#56b064;fill-rule:nonzero;stroke:#56b064;stroke-width:1.51px;"/><path d="M920,409l106,138l-140,48l34,-186Z" style="fill:#79c679;fill-rule:nonzero;stroke:#79c679;stroke-width:1.51px;"/><path d="M992,1183l-92,7l-47,-186l139,179Z" style="fill:#429656;fill-rule:nonzero;stroke:#429656;stroke-width:1.51px;"/><path d="M1069,1021l-77,162l-139,-179l216,17Z" style="fill:#4a9c5a;fill-rule:nonzero;stroke:#4a9c5a;stroke-width:1.51px;"/><path d="M1030,191l-110,218l-84,-198l194,-20Z" style="fill:#97d385;fill-rule:nonzero;stroke:#97d385;stroke-width:1.51px;"/><path d="M844,39l188,57l-196,115l8,-172Z" style="fill:#a6d98b;fill-rule:nonzero;stroke:#a6d98b;stroke-width:1.51px;"/><path d="M1032,96l-2,95l-194,20l196,-115Z" style="fill:#a6d98c;fill-rule:nonzero;stroke:#a6d98c;stroke-width:1.51px;"/><path d="M915,-53l117,149l-188,-57l71,-92Z" style="fill:#afdd92;fill-rule:nonzero;stroke:#afdd92;stroke-width:1.51px;"/><path d="M1030,191l55,154l-165,64l110,-218Z" style="fill:#99d586;fill-rule:nonzero;stroke:#99d586;stroke-width:1.51px;"/><path d="M1013,-37l19,133l-117,-149l98,16Z" style="fill:#b5e095;fill-rule:nonzero;stroke:#b5e095;stroke-width:1.51px;"/><path d="M892,889l177,132l-216,-17l39,-115Z" style="fill:#4ca25b;fill-rule:nonzero;stroke:#4ca25b;stroke-width:1.51px;"/><path d="M986,737l-1,95l-84,-113l85,18Z" style="fill:#5db669;fill-rule:nonzero;stroke:#5db669;stroke-width:1.51px;"/><path d="M985,832l84,189l-177,-132l93,-57Z" style="fill:#54a960;fill-rule:nonzero;stroke:#54a960;stroke-width:1.51px;"/><path d="M986,737l-85,-18l-15,-124l100,142Z" style="fill:#62ba6d;fill-rule:nonzero;stroke:#62ba6d;stroke-width:1.51px;"/><path d="M1026,547l-40,190l-100,-142l140,-48Z" style="fill:#6dc073;fill-rule:nonzero;stroke:#6dc073;stroke-width:1.51px;"/><path d="M1085,345l-59,202l-106,-138l165,-64Z" style="fill:#8ace80;fill-rule:nonzero;stroke:#8ace80;stroke-width:1.51px;"/><path d="M1085,345l126,97l-185,105l59,-202Z" style="fill:#92d183;fill-rule:nonzero;stroke:#92d183;stroke-width:1.51px;"/><path d="M1069,1021l160,102l-237,60l77,-162Z" style="fill:#559e5d;fill-rule:nonzero;stroke:#559e5d;stroke-width:1.51px;"/><path d="M1026,547l192,195l-232,-5l40,-190Z" style="fill:#71c174;fill-rule:nonzero;stroke:#71c174;stroke-width:1.51px;"/><path d="M1218,742l-65,70l-167,-75l232,5Z" style="fill:#6cbd6f;fill-rule:nonzero;stroke:#6cbd6f;stroke-width:1.51px;"/><path d="M986,737l167,75l-168,20l1,-95Z" style="fill:#62b76a;fill-rule:nonzero;stroke:#62b76a;stroke-width:1.51px;"/><path d="M1153,812l-84,209l-84,-189l168,-20Z" style="fill:#5faf65;fill-rule:nonzero;stroke:#5faf65;stroke-width:1.51px;"/><path d="M1223,542l-5,200l-192,-195l197,-5Z" style="fill:#81c97a;fill-rule:nonzero;stroke:#81c97a;stroke-width:1.51px;"/><path d="M1182,-22l-150,118l-19,-133l169,15Z" style="fill:#bce398;fill-rule:nonzero;stroke:#bce398;stroke-width:1.51px;"/><path d="M1153,812l60,199l-144,10l84,-209Z" style="fill:#62ac64;fill-rule:nonzero;stroke:#62ac64;stroke-width:1.51px;"/><path d="M1182,-22l40,112l-190,6l150,-118Z" style="fill:#bee498;fill-rule:nonzero;stroke:#bee498;stroke-width:1.51px;"/><path d="M1247,209l-162,136l-55,-154l217,18Z" style="fill:#aadc8d;fill-rule:nonzero;stroke:#aadc8d;stroke-width:1.51px;"/><path d="M1032,96l190,-6l-192,101l2,-95Z" style="fill:#b4e092;fill-rule:nonzero;stroke:#b4e092;stroke-width:1.51px;"/><path d="M1211,442l12,100l-197,5l185,-105Z" style="fill:#8dcf81;fill-rule:nonzero;stroke:#8dcf81;stroke-width:1.51px;"/><path d="M1222,90l25,119l-217,-18l192,-101Z" style="fill:#b7e193;fill-rule:nonzero;stroke:#b7e193;stroke-width:1.51px;"/><path d="M1213,1011l16,112l-160,-102l144,-10Z" style="fill:#5fa561;fill-rule:nonzero;stroke:#5fa561;stroke-width:1.51px;"/><path d="M1247,209l-36,233l-126,-97l162,-136Z" style="fill:#a6da8b;fill-rule:nonzero;stroke:#a6da8b;stroke-width:1.51px;"/><path d="M1223,542l108,168l-113,32l5,-200Z" style="fill:#84c97a;fill-rule:nonzero;stroke:#84c97a;stroke-width:1.51px;"/><path d="M1247,209l55,200l-91,33l36,-233Z" style="fill:#aadc8c;fill-rule:nonzero;stroke:#aadc8c;stroke-width:1.51px;"/><path d="M1364,820l-151,191l-60,-199l211,8Z" style="fill:#6fb66b;fill-rule:nonzero;stroke:#6fb66b;stroke-width:1.51px;"/><path d="M1218,742l146,78l-211,-8l65,-70Z" style="fill:#76be71;fill-rule:nonzero;stroke:#76be71;stroke-width:1.51px;"/><path d="M1362,281l-60,128l-55,-200l115,72Z" style="fill:#b4df91;fill-rule:nonzero;stroke:#b4df91;stroke-width:1.51px;"/><path d="M1364,820l30,120l-181,71l151,-191Z" style="fill:#73b46b;fill-rule:nonzero;stroke:#73b46b;stroke-width:1.51px;"/><path d="M1312,-79l-90,169l-40,-112l130,-57Z" style="fill:#caea9e;fill-rule:nonzero;stroke:#caea9e;stroke-width:1.51px;"/><path d="M1302,409l76,96l-155,37l79,-133Z" style="fill:#9dd687;fill-rule:nonzero;stroke:#9dd687;stroke-width:1.51px;"/><path d="M1378,505l-47,205l-108,-168l155,-37Z" style="fill:#91d082;fill-rule:nonzero;stroke:#91d082;stroke-width:1.51px;"/><path d="M1392,127l-145,82l-25,-119l170,37Z" style="fill:#c3e799;fill-rule:nonzero;stroke:#c3e799;stroke-width:1.51px;"/><path d="M1312,-79l80,206l-170,-37l90,-169Z" style="fill:#cceb9e;fill-rule:nonzero;stroke:#cceb9e;stroke-width:1.51px;"/><path d="M1331,710l33,110l-146,-78l113,-32Z" style="fill:#7dc576;fill-rule:nonzero;stroke:#7dc576;stroke-width:1.51px;"/><path d="M1332,1167l-103,-44l-16,-112l119,156Z" style="fill:#64a562;fill-rule:nonzero;stroke:#64a562;stroke-width:1.51px;"/><path d="M1437,992l-105,175l-119,-156l224,-19Z" style="fill:#6baa66;fill-rule:nonzero;stroke:#6baa66;stroke-width:1.51px;"/><path d="M1394,940l43,52l-224,19l181,-71Z" style="fill:#71b069;fill-rule:nonzero;stroke:#71b069;stroke-width:1.51px;"/><path d="M1302,409l-79,133l-12,-100l91,-33Z" style="fill:#9bd587;fill-rule:nonzero;stroke:#9bd587;stroke-width:1.51px;"/><path d="M1392,127l-30,154l-115,-72l145,-82Z" style="fill:#c0e597;fill-rule:nonzero;stroke:#c0e597;stroke-width:1.51px;"/><path d="M1437,992l26,191l-131,-16l105,-175Z" style="fill:#6ea967;fill-rule:nonzero;stroke:#6ea967;stroke-width:1.51px;"/><path d="M1378,505l105,89l-152,116l47,-205Z" style="fill:#96d283;fill-rule:nonzero;stroke:#96d283;stroke-width:1.51px;"/><path d="M1455,-91l-63,218l-80,-206l143,-12Z" style="fill:#d7efa4;fill-rule:nonzero;stroke:#d7efa4;stroke-width:1.51px;"/><path d="M1362,281l173,122l-233,6l60,-128Z" style="fill:#b3e091;fill-rule:nonzero;stroke:#b3e091;stroke-width:1.51px;"/><path d="M1535,403l-157,102l-76,-96l233,-6Z" style="fill:#abdc8d;fill-rule:nonzero;stroke:#abdc8d;stroke-width:1.51px;"/><path d="M1455,-91l74,135l-137,83l63,-218Z" style="fill:#d9f0a5;fill-rule:nonzero;stroke:#d9f0a5;stroke-width:1.51px;"/><path d="M1392,127l95,113l-125,41l30,-154Z" style="fill:#c4e799;fill-rule:nonzero;stroke:#c4e799;stroke-width:1.51px;"/><path d="M1483,594l51,94l-203,22l152,-116Z" style="fill:#93d081;fill-rule:nonzero;stroke:#93d081;stroke-width:1.51px;"/><path d="M1489,833l-125,-13l-33,-110l158,123Z" style="fill:#82c477;fill-rule:nonzero;stroke:#82c477;stroke-width:1.51px;"/><path d="M1534,688l-45,145l-158,-123l203,-22Z" style="fill:#89ca7b;fill-rule:nonzero;stroke:#89ca7b;stroke-width:1.51px;"/><path d="M1489,833l-95,107l-30,-120l125,13Z" style="fill:#7ebd72;fill-rule:nonzero;stroke:#7ebd72;stroke-width:1.51px;"/><path d="M1487,240l48,163l-173,-122l125,-41Z" style="fill:#bfe496;fill-rule:nonzero;stroke:#bfe496;stroke-width:1.51px;"/><path d="M1535,403l-52,191l-105,-89l157,-102Z" style="fill:#a7da8c;fill-rule:nonzero;stroke:#a7da8c;stroke-width:1.51px;"/><path d="M1594,1041l-131,142l-26,-191l157,49Z" style="fill:#77af6b;fill-rule:nonzero;stroke:#77af6b;stroke-width:1.51px;"/><path d="M1489,833l-52,159l-43,-52l95,-107Z" style="fill:#7cb86f;fill-rule:nonzero;stroke:#7cb86f;stroke-width:1.51px;"/><path d="M1529,44l-42,196l-95,-113l137,-83Z" style="fill:#d1ed9f;fill-rule:nonzero;stroke:#d1ed9f;stroke-width:1.51px;"/><path d="M1604,838l-10,203l-105,-208l115,5Z" style="fill:#87be75;fill-rule:nonzero;stroke:#87be75;stroke-width:1.51px;"/><path d="M1585,347l-50,56l-48,-163l98,107Z" style="fill:#c2e697;fill-rule:nonzero;stroke:#c2e697;stroke-width:1.51px;"/><path d="M1529,44l79,90l-121,106l42,-196Z" style="fill:#d6efa2;fill-rule:nonzero;stroke:#d6efa2;stroke-width:1.51px;"/><path d="M1489,833l105,208l-157,-49l52,-159Z" style="fill:#7fb76f;fill-rule:nonzero;stroke:#7fb76f;stroke-width:1.51px;"/><path d="M1535,403l108,175l-160,16l52,-191Z" style="fill:#abdc8e;fill-rule:nonzero;stroke:#abdc8e;stroke-width:1.51px;"/><path d="M1594,1041l29,121l-160,21l131,-142Z" style="fill:#79ac6c;fill-rule:nonzero;stroke:#79ac6c;stroke-width:1.51px;"/><path d="M1635,-106l-106,150l-74,-135l180,-15Z" style="fill:#e4f4ab;fill-rule:nonzero;stroke:#e4f4ab;stroke-width:1.51px;"/><path d="M1534,688l70,150l-115,-5l45,-145Z" style="fill:#8dc97c;fill-rule:nonzero;stroke:#8dc97c;stroke-width:1.51px;"/><path d="M1604,247l-19,100l-98,-107l117,7Z" style="fill:#c9e99b;fill-rule:nonzero;stroke:#c9e99b;stroke-width:1.51px;"/><path d="M1608,134l-4,113l-117,-7l121,-106Z" style="fill:#d1ed9f;fill-rule:nonzero;stroke:#d1ed9f;stroke-width:1.51px;"/><path d="M1643,578l-109,110l-51,-94l160,-16Z" style="fill:#9fd688;fill-rule:nonzero;stroke:#9fd688;stroke-width:1.51px;"/><path d="M1678,722l-74,116l-70,-150l144,34Z" style="fill:#94ce81;fill-rule:nonzero;stroke:#94ce81;stroke-width:1.51px;"/><path d="M1585,347l58,231l-108,-175l50,-56Z" style="fill:#b7e194;fill-rule:nonzero;stroke:#b7e194;stroke-width:1.51px;"/><path d="M1635,-106l-27,240l-79,-90l106,-150Z" style="fill:#e2f4a9;fill-rule:nonzero;stroke:#e2f4a9;stroke-width:1.51px;"/><path d="M1785,487l-142,91l-58,-231l200,140Z" style="fill:#b8e195;fill-rule:nonzero;stroke:#b8e195;stroke-width:1.51px;"/><path d="M1643,578l35,144l-144,-34l109,-110Z" style="fill:#9ed487;fill-rule:nonzero;stroke:#9ed487;stroke-width:1.51px;"/><path d="M1809,-58l-43,174l-131,-222l174,48Z" style="fill:#ecf8b1;fill-rule:nonzero;stroke:#ecf8b1;stroke-width:1.51px;"/><path d="M1635,-106l131,222l-158,18l27,-240Z" style="fill:#e4f4ab;fill-rule:nonzero;stroke:#e4f4ab;stroke-width:1.51px;"/><path d="M1604,838l202,96l-212,107l10,-203Z" style="fill:#89bd76;fill-rule:nonzero;stroke:#89bd76;stroke-width:1.51px;"/><path d="M1754,351l31,136l-200,-140l169,4Z" style="fill:#c3e69a;fill-rule:nonzero;stroke:#c3e69a;stroke-width:1.51px;"/><path d="M1604,247l150,104l-169,-4l19,-100Z" style="fill:#c9e99c;fill-rule:nonzero;stroke:#c9e99c;stroke-width:1.51px;"/><path d="M1608,134l180,56l-184,57l4,-113Z" style="fill:#d8efa3;fill-rule:nonzero;stroke:#d8efa3;stroke-width:1.51px;"/><path d="M1827,1150l-204,12l-29,-121l233,109Z" style="fill:#80af6f;fill-rule:nonzero;stroke:#80af6f;stroke-width:1.51px;"/><path d="M1806,934l21,216l-233,-109l212,-107Z" style="fill:#87b675;fill-rule:nonzero;stroke:#87b675;stroke-width:1.51px;"/><path d="M1766,116l22,74l-180,-56l158,-18Z" style="fill:#dff2a7;fill-rule:nonzero;stroke:#dff2a7;stroke-width:1.51px;"/><path d="M1678,722l145,122l-219,-6l74,-116Z" style="fill:#95cb80;fill-rule:nonzero;stroke:#95cb80;stroke-width:1.51px;"/><path d="M1823,844l-17,90l-202,-96l219,6Z" style="fill:#92c57d;fill-rule:nonzero;stroke:#92c57d;stroke-width:1.51px;"/><path d="M1788,190l-34,161l-150,-104l184,-57Z" style="fill:#d2eda1;fill-rule:nonzero;stroke:#d2eda1;stroke-width:1.51px;"/><path d="M1787,711l-109,11l-35,-144l144,133Z" style="fill:#a2d689;fill-rule:nonzero;stroke:#a2d689;stroke-width:1.51px;"/><path d="M1785,487l2,224l-144,-133l142,-91Z" style="fill:#acdb90;fill-rule:nonzero;stroke:#acdb90;stroke-width:1.51px;"/><path d="M1787,711l36,133l-145,-122l109,-11Z" style="fill:#9bd185;fill-rule:nonzero;stroke:#9bd185;stroke-width:1.51px;"/><path d="M1897,1134l-70,16l-21,-216l91,200Z" style="fill:#8bb677;fill-rule:nonzero;stroke:#8bb677;stroke-width:1.51px;"/><path d="M1948,998l-51,136l-91,-200l142,64Z" style="fill:#8fba7b;fill-rule:nonzero;stroke:#8fba7b;stroke-width:1.51px;"/><path d="M1985,523l-56,204l-142,-16l198,-188Z" style="fill:#acda93;fill-rule:nonzero;stroke:#acda93;stroke-width:1.51px;"/><path d="M1985,523l-198,188l-2,-224l200,36Z" style="fill:#b5df95;fill-rule:nonzero;stroke:#b5df95;stroke-width:1.51px;"/><path d="M1809,-58l98,201l-141,-27l43,-174Z" style="fill:#ebf8af;fill-rule:nonzero;stroke:#ebf8af;stroke-width:1.51px;"/><path d="M1947,337l-162,150l-31,-136l193,-14Z" style="fill:#c9e99f;fill-rule:nonzero;stroke:#c9e99f;stroke-width:1.51px;"/><path d="M1788,190l159,147l-193,14l34,-161Z" style="fill:#d5eea4;fill-rule:nonzero;stroke:#d5eea4;stroke-width:1.51px;"/><path d="M1907,143l-119,47l-22,-74l141,27Z" style="fill:#e4f4ab;fill-rule:nonzero;stroke:#e4f4ab;stroke-width:1.51px;"/><path d="M1931,-106l-24,249l-98,-201l122,-48Z" style="fill:#f3fab6;fill-rule:nonzero;stroke:#f3fab6;stroke-width:1.51px;"/><path d="M1907,143l40,194l-159,-147l119,-47Z" style="fill:#def2aa;fill-rule:nonzero;stroke:#def2aa;stroke-width:1.51px;"/><path d="M1929,727l-106,117l-36,-133l142,16Z" style="fill:#9fd288;fill-rule:nonzero;stroke:#9fd288;stroke-width:1.51px;"/><path d="M1947,337l38,186l-200,-36l162,-150Z" style="fill:#c5e6a0;fill-rule:nonzero;stroke:#c5e6a0;stroke-width:1.51px;"/><path d="M1994,221l-47,116l-40,-194l87,78Z" style="fill:#def2ae;fill-rule:nonzero;stroke:#def2ae;stroke-width:1.51px;"/><path d="M1823,844l167,43l-184,47l17,-90Z" style="fill:#97c681;fill-rule:nonzero;stroke:#97c681;stroke-width:1.51px;"/><path d="M1990,887l-42,111l-142,-64l184,-47Z" style="fill:#94c080;fill-rule:nonzero;stroke:#94c080;stroke-width:1.51px;"/><path d="M1929,727l61,160l-167,-43l106,-117Z" style="fill:#9dcd88;fill-rule:nonzero;stroke:#9dcd88;stroke-width:1.51px;"/><path d="M1931,-106l181,145l-205,104l24,-249Z" style="fill:#f1fabc;fill-rule:nonzero;stroke:#f1fabc;stroke-width:1.51px;"/><path d="M1948,998l149,30l-200,106l51,-136Z" style="fill:#8eb880;fill-rule:nonzero;stroke:#8eb880;stroke-width:1.51px;"/><path d="M2097,1028l38,109l-238,-3l200,-106Z" style="fill:#8cb683;fill-rule:nonzero;stroke:#8cb683;stroke-width:1.51px;"/><path d="M2077,207l-83,14l-87,-78l170,64Z" style="fill:#e4f4b4;fill-rule:nonzero;stroke:#e4f4b4;stroke-width:1.51px;"/><path d="M2112,39l-35,168l-170,-64l205,-104Z" style="fill:#ebf7ba;fill-rule:nonzero;stroke:#ebf7ba;stroke-width:1.51px;"/></svg>