<?xml version="1.0" encoding="UTF-8" standalone="no"?><!DOCTYPE svg PUBLIC "-//W3C//DTD SVG 1.1//EN" "http://www.w3.org/Graphics/SVG/1.1/DTD/svg11.dtd"><svg width="205px" height="48px" version="1.1" xmlns="http://www.w3.org/2000/svg" xmlns:xlink="http://www.w3.org/1999/xlink" xml:space="preserve" xmlns:serif="http://www.serif.com/" style="fill-rule:evenodd;clip-rule:evenodd;stroke-linejoin:round;stroke-miterlimit:1.41421;"><g id="teamofficine" transform="matrix(1,0,0,1,-9.62852,3.5752)"><g transform="matrix(1,0,0,1,55,31)"><path d="M6.412,-0.93C7.269,-0.93 8.016,-1.003 8.654,-1.148L8.654,-0.055C7.998,0.164 7.242,0.273 6.385,0.273C5.072,0.273 4.104,-0.077 3.479,-0.779C2.855,-1.481 2.543,-2.584 2.543,-4.088L2.543,-13.686L0.342,-13.686L0.342,-14.479L2.543,-15.094L3.227,-18.457L3.924,-18.457L3.924,-14.861L8.285,-14.861L8.285,-13.686L3.924,-13.686L3.924,-4.279C3.924,-3.14 4.124,-2.297 4.525,-1.75C4.926,-1.203 5.555,-0.93 6.412,-0.93Z" style="fill:#1a1f21;fill-rule:nonzero;"/><path d="M17.757,0.273C15.597,0.273 13.913,-0.392 12.705,-1.723C11.498,-3.053 10.894,-4.917 10.894,-7.314C10.894,-9.684 11.477,-11.582 12.644,-13.009C13.811,-14.435 15.383,-15.148 17.361,-15.148C19.111,-15.148 20.492,-14.538 21.503,-13.316C22.515,-12.095 23.021,-10.436 23.021,-8.34L23.021,-7.246L12.316,-7.246C12.334,-5.204 12.81,-3.646 13.744,-2.57C14.679,-1.495 16.016,-0.957 17.757,-0.957C18.605,-0.957 19.35,-1.016 19.992,-1.135C20.635,-1.253 21.449,-1.508 22.433,-1.9L22.433,-0.67C21.594,-0.305 20.82,-0.057 20.109,0.075C19.398,0.207 18.614,0.273 17.757,0.273ZM17.361,-13.945C15.93,-13.945 14.781,-13.474 13.915,-12.53C13.049,-11.587 12.544,-10.227 12.398,-8.449L21.585,-8.449C21.585,-10.172 21.212,-11.519 20.464,-12.489C19.717,-13.46 18.682,-13.945 17.361,-13.945Z" style="fill:#1a1f21;fill-rule:nonzero;"/><path d="M36.034,0L35.692,-2.352L35.583,-2.352C34.835,-1.395 34.067,-0.718 33.279,-0.321C32.491,0.075 31.559,0.273 30.483,0.273C29.025,0.273 27.89,-0.1 27.079,-0.848C26.268,-1.595 25.862,-2.63 25.862,-3.951C25.862,-5.4 26.466,-6.526 27.673,-7.328C28.881,-8.13 30.629,-8.554 32.917,-8.6L35.747,-8.682L35.747,-9.666C35.747,-11.079 35.46,-12.145 34.885,-12.865C34.311,-13.585 33.386,-13.945 32.11,-13.945C30.734,-13.945 29.307,-13.563 27.831,-12.797L27.325,-13.973C28.956,-14.738 30.57,-15.121 32.165,-15.121C33.796,-15.121 35.015,-14.697 35.822,-13.85C36.629,-13.002 37.032,-11.68 37.032,-9.885L37.032,0L36.034,0ZM30.565,-0.957C32.151,-0.957 33.402,-1.41 34.318,-2.317C35.234,-3.224 35.692,-4.484 35.692,-6.098L35.692,-7.561L33.094,-7.451C31.007,-7.351 29.519,-7.025 28.63,-6.474C27.742,-5.922 27.297,-5.063 27.297,-3.896C27.297,-2.967 27.582,-2.244 28.152,-1.729C28.722,-1.215 29.526,-0.957 30.565,-0.957Z" style="fill:#1a1f21;fill-rule:nonzero;"/><path d="M60.299,0L60.299,-9.748C60.299,-11.197 60.016,-12.255 59.451,-12.92C58.886,-13.585 58.02,-13.918 56.853,-13.918C55.331,-13.918 54.206,-13.499 53.476,-12.66C52.747,-11.822 52.383,-10.505 52.383,-8.709L52.383,0L51.002,0L51.002,-10.158C51.002,-12.665 49.853,-13.918 47.557,-13.918C45.998,-13.918 44.863,-13.465 44.152,-12.558C43.441,-11.651 43.086,-10.199 43.086,-8.203L43.086,0L41.732,0L41.732,-14.861L42.853,-14.861L43.141,-12.824L43.223,-12.824C43.633,-13.563 44.216,-14.134 44.973,-14.54C45.729,-14.946 46.563,-15.148 47.475,-15.148C49.817,-15.148 51.321,-14.269 51.986,-12.51L52.041,-12.51C52.524,-13.357 53.173,-14.009 53.989,-14.465C54.805,-14.921 55.732,-15.148 56.771,-15.148C58.394,-15.148 59.611,-14.715 60.422,-13.85C61.233,-12.984 61.639,-11.607 61.639,-9.721L61.639,0L60.299,0Z" style="fill:#1a1f21;fill-rule:nonzero;"/></g><g transform="matrix(1,0,0,1,117.699,31)"><path d="M15.34,-7.506C15.34,-5.063 14.725,-3.156 13.494,-1.784C12.264,-0.412 10.564,0.273 8.395,0.273C7.055,0.273 5.865,-0.041 4.826,-0.67C3.787,-1.299 2.985,-2.201 2.42,-3.377C1.855,-4.553 1.572,-5.929 1.572,-7.506C1.572,-9.949 2.183,-11.851 3.404,-13.214C4.626,-14.576 6.321,-15.258 8.49,-15.258C10.587,-15.258 12.252,-14.561 13.487,-13.166C14.722,-11.771 15.34,-9.885 15.34,-7.506ZM3.924,-7.506C3.924,-5.592 4.307,-4.133 5.072,-3.131C5.838,-2.128 6.964,-1.627 8.449,-1.627C9.935,-1.627 11.063,-2.126 11.833,-3.124C12.603,-4.122 12.988,-5.583 12.988,-7.506C12.988,-9.411 12.603,-10.858 11.833,-11.847C11.063,-12.836 9.926,-13.33 8.422,-13.33C6.936,-13.33 5.815,-12.842 5.059,-11.867C4.302,-10.892 3.924,-9.438 3.924,-7.506Z" style="fill:#1a1f21;fill-rule:nonzero;"/><path d="M35.367,-13.221L31.552,-13.221L31.552,0L29.283,0L29.283,-13.221L26.603,-13.221L26.603,-14.246L29.283,-15.066L29.283,-15.9C29.283,-19.583 30.891,-21.424 34.109,-21.424C34.902,-21.424 35.831,-21.264 36.898,-20.945L36.31,-19.127C35.435,-19.41 34.687,-19.551 34.068,-19.551C33.211,-19.551 32.577,-19.266 32.167,-18.696C31.757,-18.127 31.552,-17.213 31.552,-15.955L31.552,-14.984L35.367,-14.984L35.367,-13.221ZM25.96,-13.221L22.146,-13.221L22.146,0L19.876,0L19.876,-13.221L17.197,-13.221L17.197,-14.246L19.876,-15.066L19.876,-15.9C19.876,-19.583 21.485,-21.424 24.702,-21.424C25.495,-21.424 26.425,-21.264 27.492,-20.945L26.904,-19.127C26.029,-19.41 25.281,-19.551 24.661,-19.551C23.805,-19.551 23.171,-19.266 22.761,-18.696C22.351,-18.127 22.146,-17.213 22.146,-15.955L22.146,-14.984L25.96,-14.984L25.96,-13.221ZM40.466,0L38.197,0L38.197,-14.984L40.466,-14.984L40.466,0ZM38.005,-19.045C38.005,-19.564 38.133,-19.945 38.388,-20.187C38.643,-20.428 38.962,-20.549 39.345,-20.549C39.71,-20.549 40.024,-20.426 40.288,-20.18C40.553,-19.934 40.685,-19.555 40.685,-19.045C40.685,-18.535 40.553,-18.154 40.288,-17.903C40.024,-17.653 39.71,-17.527 39.345,-17.527C38.962,-17.527 38.643,-17.653 38.388,-17.903C38.133,-18.154 38.005,-18.535 38.005,-19.045Z" style="fill:#1a1f21;fill-rule:nonzero;"/><path d="M51.182,0.273C49.013,0.273 47.334,-0.394 46.144,-1.729C44.955,-3.065 44.36,-4.954 44.36,-7.396C44.36,-9.903 44.964,-11.84 46.172,-13.207C47.379,-14.574 49.1,-15.258 51.333,-15.258C52.053,-15.258 52.773,-15.18 53.493,-15.025C54.213,-14.87 54.778,-14.688 55.188,-14.479L54.491,-12.551C53.99,-12.751 53.443,-12.918 52.85,-13.05C52.258,-13.182 51.734,-13.248 51.278,-13.248C48.234,-13.248 46.712,-11.307 46.712,-7.424C46.712,-5.583 47.083,-4.17 47.826,-3.186C48.569,-2.201 49.669,-1.709 51.128,-1.709C52.376,-1.709 53.657,-1.978 54.969,-2.516L54.969,-0.506C53.967,0.014 52.704,0.273 51.182,0.273Z" style="fill:#1a1f21;fill-rule:nonzero;"/><path d="M60.682,0L58.412,0L58.412,-14.984L60.682,-14.984L60.682,0ZM58.221,-19.045C58.221,-19.564 58.348,-19.945 58.603,-20.187C58.859,-20.428 59.178,-20.549 59.56,-20.549C59.925,-20.549 60.24,-20.426 60.504,-20.18C60.768,-19.934 60.9,-19.555 60.9,-19.045C60.9,-18.535 60.768,-18.154 60.504,-17.903C60.24,-17.653 59.925,-17.527 59.56,-17.527C59.178,-17.527 58.859,-17.653 58.603,-17.903C58.348,-18.154 58.221,-18.535 58.221,-19.045Z" style="fill:#1a1f21;fill-rule:nonzero;"/><path d="M75.636,0L75.636,-9.693C75.636,-10.915 75.358,-11.826 74.802,-12.428C74.246,-13.029 73.376,-13.33 72.191,-13.33C70.623,-13.33 69.475,-12.906 68.745,-12.059C68.016,-11.211 67.652,-9.812 67.652,-7.861L67.652,0L65.382,0L65.382,-14.984L67.228,-14.984L67.597,-12.934L67.706,-12.934C68.171,-13.672 68.823,-14.244 69.661,-14.649C70.5,-15.055 71.434,-15.258 72.464,-15.258C74.269,-15.258 75.627,-14.823 76.538,-13.952C77.45,-13.082 77.906,-11.689 77.906,-9.775L77.906,0L75.636,0Z" style="fill:#1a1f21;fill-rule:nonzero;"/><path d="M88.786,0.273C86.571,0.273 84.823,-0.401 83.543,-1.75C82.262,-3.099 81.622,-4.972 81.622,-7.369C81.622,-9.785 82.216,-11.703 83.406,-13.125C84.595,-14.547 86.193,-15.258 88.198,-15.258C90.075,-15.258 91.561,-14.64 92.655,-13.405C93.749,-12.17 94.295,-10.541 94.295,-8.518L94.295,-7.082L83.973,-7.082C84.019,-5.323 84.463,-3.988 85.306,-3.076C86.149,-2.165 87.336,-1.709 88.868,-1.709C90.481,-1.709 92.076,-2.046 93.653,-2.721L93.653,-0.697C92.851,-0.351 92.092,-0.103 91.377,0.048C90.661,0.198 89.797,0.273 88.786,0.273ZM88.17,-13.357C86.967,-13.357 86.008,-12.965 85.293,-12.182C84.577,-11.398 84.155,-10.313 84.028,-8.928L91.862,-8.928C91.862,-10.359 91.543,-11.455 90.905,-12.216C90.267,-12.977 89.355,-13.357 88.17,-13.357Z" style="fill:#1a1f21;fill-rule:nonzero;"/></g></g><g id="logo"><path id="Combined-Shape" d="M44.9,2.8C45,2.8 45,2.9 45,3L36,47.8C36,47.8 35.9,47.9 35.8,47.9C35.7,47.9 35.7,47.8 35.7,47.7L37.7,37.6L31.1,31.2C33.2,29.1 34.3,26.1 34.4,23.1L40.6,23.1L40.8,22.3L34.5,22.3C34.5,19.6 33.3,16.6 31,14.3L37.6,7.9C39.7,10.1 41.3,12.5 42.3,15.1L44.7,2.9C44.7,2.8 44.8,2.8 44.9,2.8ZM11.8,15.5C10.2,17.7 9.3,20.2 9.3,22.7L0,22.7C0.1,17.9 1.8,13 5.1,9.1L11.8,15.5ZM36.9,7.4L30.3,13.7C28.5,12 25.8,10.8 23,10.6L23,1.5C28.1,1.8 33.2,3.8 36.9,7.4ZM9.3,23.5C9.3,26.2 10.5,29.2 12.9,31.6L6.3,38C2.1,33.9 0.1,28.5 0,23.5L9.3,23.5ZM6.8,38.5L13.3,32.1C15.5,34.1 18.5,35.2 21.6,35.3L21.6,44.4C16.2,44.3 10.8,42.3 6.8,38.5ZM30.6,31.8L37.2,38.3C33,42.3 27.6,44.3 22.4,44.4L22.4,35.3C25.2,35.2 28.2,34 30.6,31.8Z" style="fill:url(#_Linear1);fill-rule:nonzero;"/><path id="Shape" d="M20.9,9.1L20.9,0C15.3,0 9.7,2.1 5.4,6.3L12,12.7C14.5,10.3 17.7,9.1 20.9,9.1Z" style="fill:#697173;fill-rule:nonzero;"/></g><defs><linearGradient id="_Linear1" x1="0" y1="0" x2="1" y2="0" gradientUnits="userSpaceOnUse" gradientTransform="matrix(45,0,0,45,0,24.7)"><stop offset="0" style="stop-color:#e91e63;stop-opacity:1"/><stop offset="1" style="stop-color:#f44336;stop-opacity:1"/></linearGradient></defs></svg>